<?xml version="1.0" encoding="UTF-8"?>
<svg version="1.1" viewBox="0 0 406.95 406.97" xml:space="preserve" xmlns="http://www.w3.org/2000/svg" xmlns:cc="http://creativecommons.org/ns#" xmlns:dc="http://purl.org/dc/elements/1.1/" xmlns:rdf="http://www.w3.org/1999/02/22-rdf-syntax-ns#"><metadata><rdf:RDF><cc:Work rdf:about=""><dc:format>image/svg+xml</dc:format><dc:type rdf:resource="http://purl.org/dc/dcmitype/StillImage"/><dc:title/></cc:Work></rdf:RDF></metadata><g transform="matrix(1.25 0 0 -1.25 -54.325 406.02)"><g transform="scale(.1)"><path d="m434.6-7.6033h3255.6v3255.8h-3255.6v-3255.8z" fill-opacity="0"/><path d="m3122.1 1519.6-0.3-0.84 0.85 0.12-0.55 0.72" fill="#fff"/><path d="m1306.7 896.47 0.02-1.278 0.12 1.438-0.14-0.16" fill="#fff"/><path d="m1060.5 1410.2 0.32 1.05-0.71-0.06 0.39-0.99" fill="#fff"/><path d="m2751.6 696.86c23.03-21.23 40.39-17.75 57.37-43.668 0.9 1 1.94 1.918 3.19 2.739 12.27 1.929 21.44-7.442 28.14-16.899-0.1-15.371-2.32-33-6.47-46.07 10.15-26.43 24.07-45.941 60.8-32.762 35.73 12.742 27.25 56.141 3.68 79.199-36.18 35.411-98.15 50.614-146.71 57.461" fill="#fff"/><path d="m3130 781.03c-4.25 1.11-8.54 2.028-12.87 2.867-1.75-9.359-4.21-17.859-7.41-23.886l-19.11 27.398c-17.41 1.43-35.02 1.449-52.09 1.192-17.7-0.25-35.24-1.192-52.74-2.614-1.67-7.797-3.86-14.828-6.6-20l-12.72 18.223c-36.5-3.813-72.67-9.859-108.79-17.699 32.05-7.223 64.09-14.633 95.86-23.063 29.99-7.988 61.67-16.078 89.3-30.449 26.45-13.809 53.94-28.91 84.83-27.762 29.24 1.063 59.81 14.672 60.38 47.563 0.46 27.969-36.17 42.347-58.04 48.23" fill="#fff"/><path d="m3012.1 686.45c-1.02-8.14-2.87-15.949-5.54-20.988l-13.23 18.961c-0.45 2.777-1.42 6.18-2.05 9.707-72.97 24.019-179.66 34.082-194.37 33.91 46.39-22.539 108.38-35.527 140.92-78.66 21.63-28.731 74.45-68.938 109.57-32.457 28.52 29.609 5.95 52.457-35.3 69.527" fill="#fff"/><path d="m3115.3 1523.5c-4.72 6.58-10.15 14.29-5.66 22.24 3.19 6.37 14.71-1.21 13.46 8.45 0.9-0.19 1.25-0.71 1.62-1.26 0.42-2.44-2.63-3.67-4.19-4.3 5.46-5.35-2.02-16.42 8.78-18.69 0.79-1.19 0.97-2.42 0.82-3.59 1 1.5 2.06 2.95 3.39 3.9 5.59 5.34 13.77 6.33 20.34 5.51 3.28-5.54-4.51-7.38-5.95-11.66-7.24-8.22-20.34-4.47-28.79-11.23-1.84 1.66 0.62 2.89 1.05 4.1l-12.51 0.47c2.38 2.48 4.73 4.92 7.94 5.7l-0.3 0.36zm-72.42-327.97c86.85 9.33 171.37 20.29 255.08 46.62 176.39 55.53 290.08 208.49 356.88 373.77 12.81 31.64 24.47 63.78 35.25 96.19-0.99 0.75-25.8-36.48-30.41-42.67-13.77-18.14-28.68-35.22-44.53-51.46-32.32-33.03-68.71-60.9-106.98-86.53-71.66-47.86-153.35-85.45-235.15-112.09-71.14-23.07-147.09-36.2-215.11-67.93l3.93 9.49c-6.48-4.18-12.69-8.61-18.07-13.91-22.66 21.94 22.31 37.5 8.23 57.5 13.4 24.63 29.59 48.54 56.62 48.4 6.42-0.47 9.23-4.61 10.41-9.84l0.97 0.41c81.93 34.24 172.73 40.21 253.21 74.98 190.74 82.43 297.58 292.96 287.26 495.23-102.1-167.65-243.84-280.65-421.42-364.9-10.36-4.92-20.34-9.86-30.13-14.86 0.48-1.44 0.93-2.89 1.3-4.24-1.95-4.94 2.42-15.23-7.2-13.61-17.14 5.7-10.68-15.18-23.85-15.02-29.39-3.58-63.65-7.5-81.32 20.9-3.63 5.25-3.65 10.66-2.16 16.01l-2.37 0.97-2.48 1.01c2.63 2.03 5.33 3.96 7.98 5.94 6.52 13.45 16.54 25.91-4.4 34.04 2.18 2.58 4.5 2.79 6.9 2.92 8.55-2.86 7.16-14.84 6.35-20.91 4.71 1.43 9.3 1.19 13.8 0.12 88.92 60.41 190.92 98.53 277.22 164.08 208.13 158.1 302.15 384.84 278.8 643.44-14.02-9.08-21.8-69.89-27-84.03-23.76-64.91-57.11-126.33-99.62-180.92-67.25-86.3-155.24-148.5-242.28-212.74-119.83-88.41-224.03-194.25-299.36-319.87-5.38 2.03-10.77 4.15-16.14 6.13l-33.76 12.47c48.96 88.9 105.56 172.76 171.16 246.31 92.35 103.48 214.54 157.68 258.38 294.8 40.88 127.89 30.97 260.89-1.29 389.3 32.74-303.57-182.89-446.66-428.59-597.61-102.98-63.3-186.99-122.15-254-199.01-0.67-7.28-4.58-15.7-4-22.64-28.66-16.87 2.95-55.02-31.7-63.45-6.58 7.58 1.84 13.56 3.09 20.78l-0.65-0.05c-6.14-7.6-14.06-12.81-25.17-12.72-7.75-0.33-11.97 6.39-15.81 12.88-0.62-2.12-1.19-4.26-1.59-6.44-9.81 1.81-9.7 9.91-9.34 18.01-2.54 0.37-5.54-0.56-9.38-3.69-0.79 2.39-0.14 3.91 0.61 5.44 2.61 2.36 5.88 1.6 8.84 0 0.28 6.67 0.2 13.06-5.69 15.58-125.79 26.26-391.27 60.27-498.19 60.48l-54.59 1.64c-5.33-9.07-14.59-11.78-23.03-15.17l-0.69-22.59c-15.15 8.79-31.69 16.04-49.4 21.98-9.81-13.39-16.83-31.56-37.79-21.42-7.64 9.11 0.48 20.53-10.69 30.43 0.88 0.82 1.67 1.79 2.46 2.79-0.96 0.16-1.95 0.33-2.92 0.49-9.69-5.55-21.4-9.02-12.04-21.72-2.43-0.68-3.9 0.05-5.43 0.85-3.96 4.85 1.97 11.32 5.02 14.59-5.43 1.46-8.98 5.1-11.9 9.41-4.09-11.84-10.35-23.36-12.68-35.69-18.69 3.44-1.32 29.7-15.06 35.38l-0.12 2.62c-5.32 0.24-10.6 0.54-16.06 0.61h-0.01c-15.15 0.23-31.07-0.25-47.34-1.37l-0.49-0.03-0.5-0.03c-113.59-9.25-196.13-46.44-245.38-110.56-5.31-6.92-10.68-14.8-15.81-23.66-7.38 9.03-15.42 16.56-23.84 23.02-8.35-12.02 2.63-29.82-14.15-39.77-0.5 8.25-8.97 13.69 1.85 19.57l-1.14 1.72-13.38-7.57c-0.22 9.67 1.02 22.74 12.12 26.32-0.3 3.42-0.89 6.93-1.51 10.46-2.77 1.59-5.56 3.09-8.4 4.48-1.19-1.43-2.43-2.79-3.59-3.92-3.56-0.44-8.24-6.37-10.42-0.14-2.17 12.01-12.46 1.41-16.65 9.28-1.7 2.35-3.43 4.79-5.13 7.28-3.67 0.83-7.35 1.58-11 2.19-1.24 1.78-2.52 3.46-3.78 5.22-1.3 0.67-2.59 1.48-4.02 1.72 1.43-6.99-11.63-11.22-0.87-17.23l-1.91-2.54c-4.1 14.95-24.7 10.41-27.92 24.7 0.8 2.04 4.65 1.85 2.61 5.34-3.42 2.57-7.95-2.68-9.59 3.15 3.71 5.86 11.37 0.15 17.02 0.61 4.34-7.47 11.67-6.61 18.19-6.73-71.62 97.44-165.96 165.27-286.13 239.12-245.68 150.95-461.3 294.04-428.58 597.61-32.246-128.41-42.156-261.41-1.269-389.3 43.847-137.12 166.02-191.32 258.37-294.8 55.261-61.94 104.03-131.3 147.33-204.74 8.48-0.53 16.27-3.56 22.46-11.15 12.08-13.37-17.14-36.28 7.09-41.08-1.33-2.13-2.91-2.6-4.58-3.02-6.2 0.92-6.2 9.7-6.13 14.14-18.06-9.35-37.28 18.73-53.12-6.71-11.45-3.14-17.98 8.22-21.2 16.14 0.97 3.8-2.94 10.59 3.94 10.73h0.53c-72.69 108.59-167.3 201.6-274.44 280.65-87.04 64.24-175.01 126.44-242.27 212.74-42.52 54.59-75.859 116.01-99.629 180.92-5.176 14.14-12.969 74.95-26.98 84.03-23.364-258.6 70.664-485.34 278.79-643.44 79.136-60.12 171.46-97.18 254.81-149.49 2.285 1.55 4.61 3.36 7.012 5.53 22.21-0.25 28.09-24.01 29.79-39.91-3.71-6.35-0.19-20.53-12.59-17.23-21.392 9.65-17.532-18.8-34.966-17.02-39.695-1.18-85.984-2.23-102.98 37.59-2.207 4.5-2.625 8.92-1.922 13.24-167.99 83.16-302.82 193.72-400.94 354.84-10.332-202.27 96.528-412.8 287.26-495.23 68.235-29.48 143.87-38.34 215.24-61.19 0.793 4.35 1.504 8.77 7.668 7.01 15.196-7.13 12.735 13.26 25.188 11.79 28.37 0.41 61.48 0.65 73.19-27.98 6.96-14.79-12.13-27.82-15.95-39.52l5.13-13.22c1.15-0.82 2.39-1.68 3.95-2.5l-2.4-1.46 18.49-47.46c-71.75 37.34-153.84 50.62-230.31 75.43-81.805 26.64-163.52 64.23-235.14 112.09-38.293 25.63-74.672 53.5-106.98 86.53-15.867 16.24-30.769 33.32-44.539 51.46-4.621 6.19-29.433 43.42-30.41 42.67 10.774-32.41 22.434-64.55 35.242-96.19 66.809-165.28 180.51-318.24 356.88-373.77 83.704-26.33 168.25-37.29 255.1-46.62 20.66-2.23 40.99-4.75 61.13-8.19l0.82-2.11 25.68-66.81c-35.02 14.47-71.52 25.76-109.12 33.53-88.301 18.17-179.59 20.26-266.64 45.32-78.957 22.81-161.82 50.7-220.01 109.84 52.531-116.33 140.58-208.4 263.02-250.04 84.758-28.77 177.8-26.85 266.2-31.46 21.72-1.14 43.28-2.17 64.73-3.4l13.33-34.121 22.51-56.45 28.58-71.679 68.9 27.461c-3.71 2.828-2.89 10.121-5.32 14.3 9.32 13.731-13.11 24.219 0.74 35.43 4.6-2.012 2.07-6.519 3.06-10.062 5.84 4.41 15.56-5.778 16.34 6.839l3.22-0.628c-6.95-6.051-5.43-14.301-5.19-21.989 10.27 4.778 22.8 7.008 14.5 20.739 2.47 0.472 3.88-0.411 5.3-1.372 3.53-5.168-2.97-11.089-6.29-14.058 5.27-1.93 8.46-5.879 10.99-10.449 5.14 11.429 12.44 22.308 15.86 34.398 14.47-4.07 5.25-20.219 7.21-30.258 40.76 14.789 82.03 28.34 123.41 40.301l51.3 14.816c-2.34 4.383-4.86 8.614-7.89 12.461 9.65 7.641 16.52-2.339 23.79-8.589 3.66 0.582 7.36 1.269 11.06 2.179 42.14 10.321 85.42 19.36 128.48 26.883l7.43 1.309c-0.33 2.239-0.08 4.449 2.1 6.419 1.41 1.66 2.83 3.32 4.3 5 0.25 1.2 0.84 2.37 2.04 3.46 4.57 5.37 9.4 11 14.61 15.86-2.68 13.05-3.56 26.47-7.14 39.55 10.79 1.72 11.45-27.24 20.53-28.9l0.33-0.75c7.08 3.48 14.86 4.67 23.56 1.7 4.84-1.38 7.3-5.13 8.89-9.59 11.26 0.98 21.87-1.27 29.81-11.03 1.71-1.9 2.52-3.99 2.84-6.19 13.85-1.86 27.49-2.86 40.66-3.03 10.22-0.14 20.93 0.25 31.83 0.92 2.39 10.45 5.67 20.91 6.05 31.56 16.35-0.55 8.86-21.7 15.61-29.9 36.46 3.59 68.76 11.19 97.19 22.91 0.79 11.77 2.02 23.69 0.46 35.25 23.39 3.24 13.18-34.57 31.59-35.92 1.21-2.87 2.38-5.76 3.48-8.67l59.13-1.8c43.39-1.29 87.09-4.2 130.54-8.43-0.62 3.18-0.82 6.56-0.27 10.27 1.72 17.93 38.33 11.8 25.54 32.91 2.49 0.47 3.89-0.39 5.32-1.33 3.52-5.21-2.95-11.11-6.29-14.08 5.26-1.95 8.46-5.9 10.98-10.47 5.15 11.43 12.45 22.34 15.87 34.4 18.3-5.12-1.39-29.69 11.77-36.61-0.04-3.3-0.17-6.6-0.37-9.88 3.72 7.09 7.41 14.2 9.58 21.78 18.3-5.14-1.41-29.71 11.77-36.62l-0.02-0.14 23.27-3.59c57.23-8.79 114.77-20.278 171-34.161l5.7-1.391 6.79-1.718c16.91-4.301 33.89-8.942 50.85-13.731 6.23 4.903 10.25 11.293 6.15 23.59 4.91 10.82 17.82 8.621 25.98 6.02 2.32-3.161 10.04-4.489 5.73-9.86-6.06-5.469-1.96-9.16 0.42-13.32 0.03 2.152-0.66 4.66-2.61 7.891 2.47 0.449 3.88-0.411 5.32-1.372 2.09-3.066 0.63-6.386-1.58-9.218 0.36-1.461 0.3-3.051-0.7-4.782l-0.69-1.699c3.37-2.148 5.72-5.301 7.66-8.808 5.14 11.418 12.43 22.32 15.87 34.39 7.95-2.242 8.72-8.121 8.14-14.652 2.01 4.562 3.94 9.203 5.47 14.031 10.01-4.461-5.24-29.101 1.45-35.449-0.74-4.629-1.59-9.219-2.55-13.731 12.29-6.82 25.68-12.851 40.48-18.031 22.97-8.097 46.49-12.398 69.74-12.711 48.82-0.668 134.42 16.293 201.68 125.68 24.1 1.44 48.31 2.64 72.78 3.91 88.36 4.61 181.41 2.69 266.19 31.46 122.42 41.64 210.47 133.71 263.01 250.04-58.2-59.14-141.07-87.03-220.02-109.84-87.06-25.06-178.33-27.15-266.65-45.32-23.08-4.78-45.73-10.91-67.91-18.24 4.53 19.88 6.62 38.79 6.62 56.93 13.16 1.86 26.4 3.44 39.82 4.89" fill="#fff"/><path d="m1270.8 918.45c14.97-19.07 17.87-47.269 44.3-56.59 4.75-0.418 19.79-7.05 21.13 2.95 1.1 17.132-13.58 30.242-28.89 41.632-13.33-6.57-21.63 23.778-36.54 12.008" fill="#fff"/><path d="m1184 757.14c-1.68 0.351-3.35 0.679-5.02 1.031l-0.54-2.32c1.85 0.41 3.7 0.859 5.56 1.289" fill="#fff"/><path d="m1086.8 733.64c26.46 7.05 53.12 13.359 79.81 19.468-1.03 2.661-1.39 5.082 0.6 7.5-1.38 0.282-2.75 0.59-4.12 0.86l-6.46-3.77c-0.06 1.59-0.05 3.289 0.02 5-15.27 2.949-30.58 5.551-45.9 7.801l-9.67-13.91c-2.24 4.301-4.13 9.859-5.68 16.058-15.17 1.954-30.36 3.532-45.63 4.684l-11.94-17.184c-2.55 4.844-4.65 11.211-6.3 18.34-10.25 0.563-20.53 0.992-30.86 1.153-30.611 0.449-63.002 0.191-92.701-7.743-22.176-5.968-59.309-20.597-58.848-49.097 0.586-33.492 31.563-47.34 61.199-48.449 31.289-1.18 59.172 14.207 85.957 28.277 28.013 14.633 60.133 22.871 90.523 31.012" fill="#fff"/><path d="m1142.8 627.67c-23.89-23.5-32.49-67.703 3.72-80.692 11.45-4.121 20.67-5.039 28.31-3.648-1.25 8.688-1.96 17.707-2.02 26.129 6.78 9.629 16.08 19.16 28.53 17.211 3.09-2.031 5.09-4.613 6.36-7.461 2.99 7.687 5.68 15.988 8.45 24.301 23.34 69.758 44.24 53.859 75.33 82.687-49.19-6.988-112.01-22.48-148.68-58.527" fill="#fff"/><path d="m1093.5 695.83c-0.4-1.762-0.81-3.48-1.05-4.961l-13.39-19.32c-2.5 4.73-4.26 11.801-5.33 19.34-67.5-18.09-120.51-46.039-82.089-86.129 35.589-37.153 89.119 3.797 111.05 33.058 32.95 43.95 95.78 57.172 142.81 80.141-12.08 0.141-85.32-6.582-152-22.129" fill="#fff"/><path d="m2277.5 1334c20.25 12.03-0.03 35.47 22.2 46.43 12.06 15.23 1.79 33.63 1.79 47.67-6.82-0.74-19.65-9.19-23.17-1.11l-1.56-0.39c-2.14-3.22 1.98-4.84 2.95-7.25-11.06-14-4.07-30.23-2.77-45.31-11.09-3.59-12.33-16.66-12.12-26.31l13.38 7.58 1.15-1.76c-10.82-5.86-2.36-11.3-1.85-19.55" fill="#231f20"/><path d="m1501.9 1088.1c0.38-1.41 0.76-2.86 1.13-4.26 0.88 1.07 1.78 2.05 2.52 2.83-1.33 0.35-2.52 0.84-3.65 1.43" fill="#231f20"/><path d="m1911.5 1166.2c-2.13-16.29-36.45-14.33-22.23-33.59-2.42-0.69-3.9 0.04-5.42 0.86-3.97 4.84 1.94 11.33 5 14.57-2.8 0.74-5.09 2.11-7.06 3.81-2.31-0.36-4.76-0.61-7.29-0.82-3.84-9.63-8.33-19.16-10.23-29.26-14.96 2.75-6.85 20.1-10.04 29.84-29.62 5.04-38.01 30.86-42.62 75.41-13.57 132.89-27.16 265.82-40.73 398.74-5.49 52.81 1.41 83.2 60.07 87.88 58.67 4.25 71.28-24.68 73.81-77.74 5.05-101.69 10.06-203.39 15.11-305.07-1.58-0.94-3.12-2.17-4.54-3.96-19.91-29.05-7.1-63.79 9.45-96.43 1.07-29.79-1.6-51.11-13.28-64.24zm-82.44 608.22c-76.72-6.24-132.97-26.45-169.76-58.74-20.97-6.04-32.71-29.54-42.86-50.33-2.77-4.14-1.28-7.76 0.58-11.25-11.81-32.43-13.67-70.69-5.74-114.15 15.31-89.94 30.64-179.9 45.98-269.88 24.66-136.76 96.14-189.73 223.11-179.53 127.02 8.83 189.42 71.87 193.38 210.84 1.73 91.21 3.43 182.44 5.16 273.69 4.06 137.27-76.41 211.22-249.85 199.35" fill="#0d0b0b"/><path d="m2509.6 1110-101.73 366.17s98.45 123.05 152.18 182.33c14.68-3.01 29.31-6.13 43.94-9.36 4.4 19.74 8.79 39.5 13.17 59.27-63.09 14-126.58 25.74-190.34 35.16-2.95-20.03-5.91-40.04-8.88-60.07 8.23-1.21 21.06-3.22 30.76-4.78-0.48-5.67 0.34-11.47 1.33-17.25l-152.77-193.99s15.44 139.2 25.33 228.37c14.42-1.61 28.86-3.33 43.25-5.16 2.57 20.06 5.14 40.16 7.7 60.24-51.66 6.59-103.47 11.48-155.36 15.08-9.07 3.41-18.63 6.26-28.2 8.83-3.14-3.58-6.55-5.48-10.16-6.27-3.82 0.21-7.63 0.32-11.45 0.51-18.1 4.52-38.58 22.15-53.68 2.28l-1.03 0.05-0.05-1.55-1.55-2.39 1.44-1c-0.56-18.6-1.13-37.18-1.67-55.77 14.48-0.45 28.96-1 43.42-1.68-7.53-160.8-15.06-321.6-22.59-482.38-1.62 0.43-2.94 1.33-3.75 3.18l-1.55-0.43c-2.15-3.2 1.96-4.82 2.92-7.2-11.03-13.99-4.05-30.24-2.73-45.34-6.45-2.07-9.52-7.38-10.97-13.33-7.12 0.29-14.25 0.62-21.38 0.83-0.6-20.25-1.23-40.46-1.84-60.72 65.36-1.97 130.62-7.13 195.57-15.41 2.53 19.63 5 39.2 7.52 58.83-5.83-3.63-9.18-7.99-2.84-16.58-2.42-0.7-3.89 0.04-5.42 0.86-3.98 4.82 1.95 11.31 5.01 14.57-2.83 0.76-5.14 2.13-7.13 3.87-2.17 0.25-4.41 0.52-6.59 0.78-3.94-10.2-8.86-20.26-10.86-30.92-18.7 3.44-1.31 29.69-15.06 35.37-0.59 7.64-0.88 15.33-0.19 22.52-1.25-0.2-2.52-0.41-3.93-0.82-10.58 5.41-7.77 18.22-4.8 26.27 3.27 2.13 4.96 9.78 10.13 5.25 5.33-6.52 9.3-2.13 13.73-0.02l24.44 220.3 78.89-291.02s-14.77 2.4-22.15 3.54c-3.09-20.02-6.17-40.04-9.25-60.04 59.66-9.16 118.96-21 177.77-35.51 4.84 19.67 9.68 39.31 14.54 58.98-7.71 1.9-23.14 5.55-23.14 5.55" fill="#0d0b0b"/><path d="m1326 1370.5c-23.31 75.93-46.64 151.85-69.96 227.8 17.25 4.98 32 8.21 44.64 9.66 0.5 2.05 1.11 4.03 1.75 5.73 3.26 2.16 4.94 9.82 10.12 5.27 7.96-9.71 12.88 4.88 20.8-0.14 19.34-8.85 41.78-19.35 40.48-42.49-0.01-4.81-2.72-8.14-6.32-10.81 9.4-35.34 18.82-70.67 28.24-106.02 12.94-49-0.01-66.95-69.75-89zm92.8-296.53 0.91-0.19-1.03-0.29 0.12 0.48zm210.69 77.07c-8.4 43.42-16.8 86.82-25.22 130.26-13.16 69.43-52.1 96.56-139.1 83.18 71.95 20.43 97.62 57.93 84.36 126.02-7.98 40-15.96 80.03-23.93 120.02-18.7 96.42-78.52 101.27-222.46 61.97-91.5-25.66-181.97-56.22-271.08-91.73 7.51-18.81 14.99-37.61 22.5-56.42 13.73 5.49 27.48 10.84 41.3 16.06 9.7-25.59 19.4-51.21 29.11-76.8-4.31-21.25 5.52-44.65 16.91-66.72 3.88 0.06 6.9-0.95 9.39-2.63 0.54-1.43 1.07-2.84 1.62-4.26-1-0.16-2.12-0.22-3.53 0-6.88-0.14-2.98-6.92-3.94-10.72 2.86-7.11 8.46-16.9 17.82-16.59 42.14-111.13 84.27-222.24 126.43-333.37-10.95-4.15-21.86-8.38-32.76-12.74 7.5-18.809 14.99-37.622 22.49-56.419 61.92 24.68 124.72 46.189 188.21 64.529-5.62 19.47-11.24 38.9-16.85 58.34-7.29-2.09-14.56-4.3-21.83-6.49-6.79 8.54-17.83 14.57-12.89 29.47-1.32 10.51-8.14 16.8-15.58 22.02-19.16 62.38-38.31 124.74-57.46 187.13 4.27 1.28 9.33 3.78 13.62 5.09 53.75 16 85.57-4.2 100.07-60.13 9.68-36.82 19.34-73.64 29.02-110.45l2.21-0.9c19.35-8.85 41.78-19.36 40.49-42.5-0.06-13.46-20.73-15.33-25.07-23.69l0.64-2.42c5.42-20.55 15.69-41.02 44.78-33.81 44.34 10.86 88.94 20.15 133.74 27.98-2.98 17.19-5.99 34.38-8.99 51.55-31.03-5.49-39.02-0.57-44.02 25.17" fill="#0d0b0b"/><path d="m2883.3 1380.4c29.77-11 59.37-22.58 88.79-34.75 30.59 73.99 61.19 147.95 91.8 221.91-23.18 9.58-46.49 18.7-69.86 27.63-13.06 26.46-51.29-1.41-68.73 28.6-4.31-0.34-9.13 0.85-13.96 2.14-15.31 11.33-33.91 20.76-56.5 27.96-90 28.65-169.05-6.17-197.55-92.38-3.92 0.91-8.02 0.24-12.2-3.04-27.07-24.42-21.53-62.91-12.53-99.63 28.37-6.31 7.91-50.82 31.8-62.15 20.45-45.94 54.19-88.77 88.21-142.78 33.24-52.5 34.42-85.17 19.33-127.28-19.47-53.63-43.69-73.4-81.47-60.82-18.93 6.23-31.43 16.48-37.59 31.17-2.95-7.17-5.83-14.35-7.22-21.85-18.71 3.43-1.32 29.68-15.07 35.39-0.62 7.61-0.9 15.33-0.2 22.52-1.25-0.22-2.52-0.41-3.92-0.8-10.59 5.37-7.79 18.18-4.8 26.21 3.26 2.16 4.95 9.82 10.11 5.27 7.98-9.71 12.89 4.86 20.82-0.14 1.01-0.47 2.03-0.93 3.06-1.4 9.5 31.85 19.03 63.75 28.55 95.6-30.48 9.12-61.08 17.54-91.82 25.35-1.34-5.31-2.7-10.64-4.04-15.95-3.87-0.78-7.26-0.51-8.82 3.08l-1.57-0.43c-2.14-3.22 1.97-4.82 2.95-7.2-9.51-12.06-5.68-25.75-3.58-38.93-0.66-2.6-1.32-5.18-1.98-7.75-8.43-4.75-9.53-16.21-9.31-24.96l3.48 1.97c-1.78-7.09-3.59-14.16-5.38-21.27-1.04-0.8-2.06-1.74-3.02-2.95-9.59-13.99-11.52-29.32-9.17-45.1-6.89-27.15-13.77-54.3-20.65-81.44 25.69-6.51 51.29-13.6 76.78-21.14 4.82-4.66 11.59-6.99 22.08-4.8-1.64 9.18-2.02 18.59-1.89 28.08 13.85-31.15 36.55-49.411 74.93-62.849 77.34-27.261 153.19 11.231 203.37 125.12 39.89 92.42 15.02 150.12-42.69 241.11-39.14 61.16-79.17 108.85-58.83 173.97 12.51 40.14 45.25 56.42 81.05 44.17 44.09-15.23 48.44-47.1 27-104.84-9.92-26.87-19.85-53.75-29.76-80.62" fill="#0d0b0b"/><path d="m1823.7 2236.7 0.12 0.22-0.1-0.01-0.02-0.21" fill="#fff"/><path d="m1621.3 2067.6c-7.25 36.37-14.51 72.73-21.77 109.09 28.95 5.29 40.66 0.16 44.2-19.56 3.14-17.3 6.27-34.61 9.41-51.93 4.18-23.25-1.69-31.22-31.84-37.6zm126.15-114.04c-3.01 20.44-6 40.86-9.02 61.28-4.74 32.76-21.06 46.06-58.36 43.25 31.2 6.67 42.65 23.63 37.91 55.62-2.81 18.84-5.66 37.68-8.47 56.5-6.71 45.61-30.54 48.85-89.1 38.08-37.3-6.99-74.46-14.93-111.46-23.82 2.2-9.18 4.41-18.37 6.62-27.56 5.76 1.37 11.53 2.74 17.28 4.09 19.22-82.89 38.41-165.77 57.61-248.65-5.11-1.18-10.22-2.39-15.3-3.62 2.18-9.18 4.39-18.37 6.6-27.56 29.46 7.07 59.04 13.44 88.72 19.12-1.78 9.28-3.56 18.56-5.32 27.85-5.15-0.98-10.29-1.97-15.41-3.01-7.72 38.64-15.44 77.31-23.15 115.95 1.86 0.37 4.1 1.27 5.98 1.62 23.37 4.58 36.38-6.05 41.1-32.68 3.02-16.72 6-33.4 9-50.11 1.98 3.76 3.95 7.53 5.1 11.56 9.63-2.7-0.75-15.63 6.19-19.27-0.01-1.73-0.09-3.46-0.19-5.19 1.96 3.73 3.91 7.47 5.04 11.45 9.64-2.69-0.73-15.63 6.19-19.27-0.05-3.97-0.25-7.96-0.93-11.66l2.04 0.07c5.3-3.32 3.22-9.92 1.27-13.97-1.81-0.97-3.07-4.91-5.56-2.27-1.14 1.67-2.22 2.07-3.31 2 2.61-2.22 5.79-4.26 9.78-6.21 20.62 3.52 41.27 6.72 61.96 9.56-1.12 8.07-2.23 16.15-3.35 24.2-14.15-1.96-17.66 0.56-19.46 12.65" fill="#fff"/><path d="m1695.1 1940.6-2.06-0.08c-0.23-1.24-0.52-2.45-0.88-3.61 1.36-3.06 2.71-6.08 5.19-7.89 1.45 3.92 2.1 8.84-2.25 11.58" fill="#fff"/><path d="m1697.3 1929.1-0.98-2.41c-1.83-0.97-3.08-4.89-5.57-2.26l-0.55 0.59c1.62-3.87 3.82-7.22 6.91-10.21 3.94 2.96 5.97 7.53 6.93 12.78-2.91-0.18-5.14 0.33-6.74 1.51" fill="#fff"/><path d="m1690.5 1940.4 2.52 0.11c0.39 2.08 0.61 4.26 0.75 6.47-1.15-2.18-2.28-4.36-3.27-6.58" fill="#fff"/><path d="m2409 2053.2c-0.32-2.04-2.47-4.03-3.77-5.18 1.02-0.37 1.81-0.96 2.57-1.59 0.4 2.27 0.8 4.52 1.2 6.77" fill="#fff"/><path d="m2480.8 2139.4c-12.6-61.11-25.17-122.2-37.77-183.32-5.03-24.36-11.61-36.29-32.24-32.28-20.64 3.94-21.88 17.38-17.48 41.88 3.23 18.06 6.49 36.11 9.74 54.17-6.65 4.64-11.98 10.41-10.71 18.98 0.91 9.44 20.18 6.2 13.45 17.33 1.3 0.24 2.05-0.21 2.8-0.72l0.5-2.01c5.79 32.14 11.56 64.3 17.35 96.46 4.38 24.44 10.77 37.15 34.22 32.67 23.45-4.56 25.15-18.84 20.14-43.16zm52.55-12.92c-7.04 4.73-12.84 10.64-11.53 19.55 0.91 9.45 20.18 6.23 13.45 17.34 1.3 0.25 2.04-0.21 2.81-0.7 1.84-2.75-1.57-5.85-3.33-7.41 2.79-1.02 4.46-3.14 5.79-5.55 0.94 2.1 2 4.19 3.08 6.26-9.57 27.71-35.08 46.11-77.58 54.43-68.48 12.99-105.68-14.57-114.68-78.34-6.18-42.15-12.36-84.33-18.53-126.48-9.05-64.08 14.38-98.57 72.59-109.61 58.15-11.38 92.92 11.87 108.33 74.72 9.95 41.45 19.9 82.87 29.84 124.3 1.45 5.9 2.43 11.51 3.15 16.98-6.07 3.76-11.63 8.28-13.39 14.51" fill="#fff"/><path d="m2283.1 1921c0.9 9.45 20.18 6.23 13.45 17.34 1.31 0.25 2.04-0.21 2.81-0.7 1.84-2.75-1.57-5.85-3.33-7.42 1.17-0.43 2.11-1.07 2.96-1.82 0.76 5.76 1.55 11.51 2.31 17.26-5.03 0.67-10.07 1.35-15.09 1.97 9.07 71.55 18.16 143.11 27.26 214.66-2.91 2.63-5.14 5.62-6.15 9.19-7.04 4.74-12.84 10.65-11.53 19.57 0.91 9.44 20.2 6.2 13.46 17.33 1.31 0.24 2.04-0.21 2.8-0.72 1.85-2.73-1.57-5.83-3.33-7.4 2.79-1.03 4.46-3.13 5.79-5.54 2.72 6.02 6.55 11.78 8.37 18.15 6.37-1.79 4.03-8.03 3.69-13.13 2.34-0.3 4.64-0.6 6.98-0.91l0.37 1.03 1.53-0.82c1.24 9.22 2.48 18.42 3.73 27.65-35.17 4.73-70.42 8.64-105.72 11.73-0.82-9.42-1.64-18.83-2.46-28.25 5.87-0.51 11.73-1.05 17.6-1.62-8.07-84.68-16.13-169.36-24.18-254.04-5.19 0.47-10.4 0.95-15.58 1.4-0.82-9.41-1.64-18.83-2.46-28.25 25.6-2.23 51.17-5.09 76.69-8.33l0.03 1.67" fill="#fff"/><path d="m2128.5 2182.3c-2.49-59.57-4.96-119.14-7.45-178.71-1.24-29.25-7.57-41.49-33.88-40.78-4.61 0.12-9.22 0.22-13.83 0.31 1.2 66.05 2.41 132.08 3.63 198.12-3.51 2.86-6.26 6.22-7.41 10.31-7.04 4.74-12.85 10.65-11.52 19.57 0.9 9.44 20.17 6.2 13.43 17.33 1.31 0.24 2.06-0.21 2.83-0.72 1.84-2.73-1.58-5.83-3.33-7.4 2.78-1.03 4.46-3.13 5.79-5.54l0.86 1.86c0.13 7.22 0.27 14.43 0.4 21.66 2.51-0.06 5.05-0.11 7.57-0.17 33.8-0.81 44.01-10.17 42.91-35.84zm-12.68 63.36c-42.03 1.46-84.1 1.76-126.14 0.88 0.2-9.46 0.4-18.9 0.59-28.36 5.89 0.13 11.77 0.23 17.66 0.3 1.11-85.06 2.21-170.12 3.32-255.19-5.23-0.06-10.43-0.15-15.64-0.27 0.2-9.45 0.39-18.9 0.6-28.34 35.8 0.75 71.61 0.51 107.39-0.72 56.57-2.13 78.69 15.68 83.25 75 3.91 52.65 7.82 105.28 11.71 157.94 4.21 54.17-19.29 76.33-82.74 78.76" fill="#fff"/><path d="m1834.1 2035c3.41 47.4 7.39 94.8 11.91 142.2 11.16-46.04 21.87-92.13 32.11-138.32-14.67-1.14-29.36-2.42-44.02-3.88zm123.48-73.16c-19.7 93.8-41.69 187.34-65.96 280.48-19.65-1.26-39.28-2.83-58.91-4.61-0.49-3.64-0.89-7.17 2.22-8.8-0.04-3.97-0.25-7.98-0.93-11.68l2.05 0.09c5.3-3.34 3.21-9.92 1.27-13.99-1.82-0.97-3.07-4.89-5.56-2.27-3.71 5.48-6.99-1.94-10.91 1.08l-1.76 1.03c-8.21-84.71-14.69-169.38-19.21-254-6.37-0.77-12.72-1.56-19.08-2.4 1.23-9.36 2.45-18.74 3.67-28.12 22.45 2.95 44.94 5.47 67.46 7.61-0.89 9.42-1.78 18.83-2.68 28.24-6.68-0.63-13.35-1.3-20.01-2.02 1.1 17.98 2.27 35.94 3.53 53.9 17.21 1.74 34.44 3.25 51.68 4.54 3.77-17.49 7.47-35.03 11.12-52.56-6.1-0.43-12.18-0.89-18.27-1.4 0.77-9.41 1.53-18.84 2.31-28.25 31.46 2.55 62.97 4.33 94.51 5.36-0.29 9.44-0.62 18.89-0.91 28.34-5.2-0.18-10.43-0.36-15.63-0.57" fill="#fff"/><path d="m2210.4 802.31c-1.35-1.067-1.97-1.399-1.85-1.008-0.24 1.847 1.79 4.59 6.11 8.258 0.81-0.02 1.94 1.023 3.41 3.113 1.16 1.617 2.26 3.16 3.31 4.637 0.51-0.11 1.73 0.82 3.7 2.82 0 0.09-0.57-0.098-1.67-0.57 2.95 1.543 4.68 3.242 5.24 5.062 2.78 2.578 4.78 4.551 5.97 5.961 1.19 1.379 2.42 2.727 3.67 4.02 1.64 1.48 3.17 2.558 4.59 3.218 0.51-0.211 1.44-0.129 2.8 0.239 1.38 0.371 2.24 0.543 2.66 0.523l1.32-1.09c1.48-0.273 2.02-1.152 1.58-2.66-0.13 0-0.81-1.113-2.06-3.32-0.75-1.192-1.83-2.09-3.25-2.653-3.22-3.89-7.49-7.289-12.8-10.218-4.71-3.832-9.43-7.051-14.12-9.672-0.03-0.43-0.46-1.008-1.39-1.809l-1.67-0.078c-0.63-0.922-1.97-2.211-4.03-3.891l-1.07-1.011v0.129h-0.45" fill="#fff"/><path d="m2316.7 796.22c-1.31-1.071-1.93-1.41-1.82-1-0.23 1.84 1.79 4.59 6.12 8.25 0.81-0.039 1.94 0.992 3.39 3.101 1.18 1.602 2.28 3.168 3.29 4.649 0.5-0.117 1.73 0.801 3.7 2.793 0 0.117-0.54-0.071-1.67-0.543 2.96 1.523 4.71 3.222 5.28 5.062 2.77 2.571 4.78 4.528 5.97 5.93 1.19 1.391 2.41 2.738 3.63 4.027 1.68 1.481 3.19 2.571 4.63 3.223 0.48-0.199 1.43-0.141 2.77 0.25 1.37 0.371 2.27 0.551 2.66 0.531l1.31-1.113c1.52-0.238 2.03-1.141 1.58-2.66-0.09 0-0.77-1.11-2.03-3.321-0.74-1.187-1.82-2.089-3.24-2.66-3.23-3.859-7.49-7.277-12.81-10.187-4.71-3.852-9.42-7.051-14.11-9.692-0.03-0.41-0.51-1-1.42-1.8l-1.64-0.09c-0.64-0.899-1.98-2.207-4.04-3.867l-1.1-1.043 0.03 0.14-0.48 0.02" fill="#fff"/><path d="m1372.6 824.56c2.93 3.05 5.88 6.07 8.92 9.16 3.75 3.793 6.98 6.293 9.6 7.5 0.7-1.188 0.31-3.399-1.1-6.719-1.43-3.281-1.97-5.469-1.67-6.539-3.37-11.231-8.92-28.379-16.26-51.449-0.57-4.653-0.98-7.481-1.28-8.41-0.87-3.27-2.39-6.332-4.66-9.204l0.55-1.136c0.53-1.731 0.26-4.821-0.78-9.223l-1.43-1.578 0.29-0.391c0.09-0.308-0.11-1.09-0.62-2.398-0.55-1.274-0.68-2.211-0.51-2.793l0.39-0.707c-0.51-2.711-1.52-6.152-2.96-10.293 0.36-1.481 0.06-4.449-0.89-8.867-0.93-4.473-1.11-7.5-0.56-9.141-0.72-4.223-0.16-7.262 1.7-9.121 1.09 0.16 2.2 0.41 3.34 0.781 3.69 1.231 8.35 3.969 13.95 8.149 6.87 5 11.18 7.968 12.92 8.941l-0.6 0.277c0.18 0.172 0.75 0.543 1.74 1.133 0.95 0.571 1.69 0.918 2.2 1.071l1.41-0.192c-0.67-1.512-2.15-3.301-4.45-5.469-2.3-2.171-3.75-3.851-4.42-5.019-13.18-13.832-27.21-25.762-42.21-35.84-0.65-0.41-2.71-1.07-6.14-1.953l-0.75 1.191c-0.32 0.961-0.21 2.649 0.33 5.121 0.54 2.457 0.63 4.168 0.33 5.129l-0.72 1.059 0.81 0.109c0.42 0.492 0.36 1.332-0.14 2.543 0.74 0.141 1.27 0.75 1.54 1.758 0.3 1.02 0.78 1.703 1.46 2.031l-2.12 0.719c0.6 0.981 1.08 2.109 1.44 3.422l-0.96 0.777c0.24-0.019 0.84 0.571 1.82 1.762 0.15 1.309 0.3 2.582 0.45 3.891l-0.8 0.839c-0.22 0.579-0.18 1.739 0.06 3.442 0.23 1.68 0.33 2.828 0.23 3.469l1.37 1.578c-0.82 3.621 0.04 7.472 2.63 11.57-1.17 1.422-1.25 2.563-0.27 3.449l0.86 1.102-0.92 0.64c2.8 10.649 5.55 23.911 8.38 39.829 3.32 18.882 6.36 33.121 8.93 42.671 1.19 1.129 2.89 3.321 5.12 6.602 1.91 2.719 3.41 4.316 4.45 4.727" fill="#fff"/><path d="m1659.8 898.9c2.93 3.024 5.87 6.071 8.92 9.141 3.76 3.813 6.98 6.293 9.61 7.5 0.68-1.18 0.29-3.398-1.11-6.699-1.43-3.281-1.97-5.488-1.66-6.559-3.38-11.242-8.93-28.383-16.26-51.449-0.58-4.652-0.99-7.461-1.28-8.422-0.87-3.238-2.39-6.328-4.66-9.18l0.54-1.128c0.53-1.762 0.27-4.84-0.78-9.223l-1.43-1.578 0.29-0.391c0.1-0.308-0.11-1.121-0.62-2.398-0.54-1.293-0.69-2.231-0.51-2.821l0.39-0.699c-0.51-2.711-1.52-6.152-2.95-10.273 0.35-1.489 0.06-4.481-0.9-8.887-0.92-4.453-1.1-7.5-0.56-9.141-0.73-4.199-0.16-7.25 1.7-9.121 1.1 0.149 2.2 0.43 3.34 0.801 3.7 1.231 8.36 3.938 13.96 8.141 6.86 5 11.18 7.968 12.91 8.929l-0.59 0.289c0.18 0.18 0.75 0.532 1.72 1.122 0.96 0.558 1.7 0.91 2.21 1.089l1.41-0.203c-0.66-1.496-2.15-3.316-4.45-5.457-2.29-2.191-3.76-3.851-4.41-5.043-13.19-13.828-27.21-25.769-42.22-35.816-0.64-0.41-2.71-1.082-6.13-1.981l-0.75 1.188c-0.32 0.961-0.21 2.68 0.32 5.141 0.55 2.46 0.63 4.16 0.33 5.14l-0.71 1.031 0.81 0.118c0.41 0.492 0.35 1.332-0.16 2.562 0.75 0.141 1.29 0.719 1.56 1.738 0.3 1.012 0.77 1.7 1.45 2.051l-2.11 0.699c0.6 0.981 1.08 2.11 1.43 3.422l-0.96 0.801c0.25-0.043 0.84 0.566 1.83 1.758 0.14 1.289 0.3 2.582 0.44 3.859l-0.8 0.86c-0.21 0.589-0.18 1.742 0.05 3.441 0.25 1.68 0.34 2.832 0.25 3.48l1.37 1.559c-0.83 3.609 0.03 7.461 2.62 11.563-1.16 1.449-1.25 2.578-0.27 3.457l0.87 1.089-0.93 0.672c2.81 10.621 5.55 23.899 8.39 39.821 3.31 18.89 6.36 33.109 8.92 42.679 1.19 1.129 2.89 3.321 5.13 6.578 1.91 2.711 3.4 4.34 4.44 4.75" fill="#fff"/><path d="m1431 754.83c-0.51 0.508-0.45 1.609 0.08 3.297 0.56 1.703 0.6 2.84 0.09 3.441-0.23 2.481-1.25 4.262-3.1 5.391-1.86 1.141-3.94 1.328-6.27 0.668-3.16-0.918-5.93-3.109-8.26-6.57-1.79-3.368-2.5-5.618-2.21-6.707l1.07-1.27c-2.14-2.543-5.39-5.902-9.72-10.102 0.54-6.21 0.9-9.468 0.99-9.789 0.8-2.812 2.62-4.16 5.43-4.101 1.01 0 2.08 0.18 3.22 0.512 3.22 0.98 6.12 2.847 8.71 5.617 6.02 7.41 9.36 13.953 9.97 19.613zm14.27 6.117c-14.01-22.328-28.45-38.687-43.78-49.179-0.18-0.059-2.42-0.731-6.63-2.051-2.94-1.039-4.95-0.957-5.95 0.191-1.41 1.578-2.45 3.52-3.11 5.738-2.77 9.09-1.13 19.383 5.04 30.903 11.99 18.949 23.87 30.82 35.18 35.648l0.77-0.98 0.74-0.821-0.74-1.636-0.15-0.68c3.85 2.59 7.28 4.309 10.26 5.129 2.36 0.668 4.23 0.668 5.66 0-0.14-1.109-0.14-2.012 0.04-2.691 0.26-1 1.16-1.899 2.71-2.758 1.53-0.84 2.36-1.91 2.47-3.262 0.34-2.871-0.53-7.398-2.51-13.551" fill="#fff"/><path d="m1456.7 777.92c-1.19-1.5-3.13-2.832-5.81-3.981-2.72-1.179-4.62-2.66-5.73-4.461 1.73 2.661 3.46 5.309 5.22 7.969 4.6 4.961 9.25 9.84 13.96 14.692 5.91 5.8 11.04 9.898 15.37 12.359l0.86-0.719c-3.79-11.992-8.86-29.793-14.83-53.359 0.24 0.367 3.7 7.187 10.63 20.367 6.44 12.441 14.43 22.359 23.88 29.75 4.12 5.109 7.88 8.063 11.22 8.859-2.39-10.859-3.9-23.918-4.54-39.199 0.84-2.097 2.48-4.738 4.91-7.918 0.62 0.149 1.52 0.211 2.71 0.188 1.15-0.039 2.05 0.043 2.68 0.179 0.95 0.231 1.88 0.782 2.81 1.622 1.4 1.621 2.83 3.14 4.26 4.652 1.79 1.887 3.32 2.808 4.54 2.789-7.1-9.852-14.68-17.723-22.8-23.609-1.64-1.473-3.6-2.493-5.9-3.09-4.06-0.922-6.03-1.371-5.82-1.313-2.78 1.492-4.68 4.199-5.67 8.18-0.59 2.371-0.95 5.75-1.01 10.16-0.12 6.371-0.21 9.941-0.27 10.652-9.27-17.621-18.35-32.351-27.45-44.16-1.19-0.961-3.51-3.293-6.94-7.019-2.78-2.891-5.28-4.961-7.46-6.231 1.52 7.348 3.91 18.34 7.31 33.008 2.92 13.109 4.26 22.973 3.87 29.633" fill="#fff"/><path d="m1575.6 802c-2.93 2.398-7.14 3.031-12.6 1.859-2.03-0.429-4.24-1.121-6.62-2.07-4.09-8.187-6.84-14.027-8.32-17.5-2.75-6.25-4.95-12.109-6.65-17.519 1.25 0.312 3.87 2.261 7.84 5.878l-0.29 0.563c3.9 4.008 10.19 11 19.06 20.937 1.84 1.84 4.37 4.473 7.58 7.852zm34.51 28.07c-3.47-5.531-6.87-11.121-10.15-16.761-3.67-6.52-6.3-11.887-7.94-16.047 0.16-1.864-0.74-4.91-2.62-9.153-1.88-4.23-2.81-7.14-2.81-8.82l-1.39-2.008c0.14-0.812-0.42-2.332-1.67-4.582-1.25-2.238-1.74-3.687-1.44-4.347 0.3-0.68 0.13-1.5-0.57-2.461-0.68-1-1.28-2.641-1.78-4.922-0.51-2.289-1.31-3.809-2.37-4.547l0.9-1.223c0.16-0.617-0.33-1.617-1.4-3.039-1.08-1.43-1.55-2.441-1.43-3.07l0.93-1.192c-1.08-1.168-1.71-2.707-1.83-4.609-0.17-1.91-0.57-3.32-1.25-4.219-0.29-1.718-1.07-3.898-2.35-6.558-1.2-2.172-2.3-4.34-3.35-6.524l-1.08-1.058-0.32-1.481c-0.2-0.039-0.56-0.629-1.07-1.801-0.51-1.148-1.22-1.839-2.15-2.027-0.54-1.191-1.1-2.34-1.64-3.519l-1.28-0.911-0.93-1.632c-3.66-4.387-9.7-11.188-17.96-20.5-5.01-5.18-8.71-8.969-11.15-11.348-4.53-4.281-8.65-7.621-12.32-10.02l-0.75-1.211-0.92-0.468c-3.88-3.832-8.57-7.442-14.08-10.903-4.74-2.73-9.49-5.488-14.2-8.238-1.34-0.16-3.13-0.652-5.37-1.473-2.42-0.968-4.21-1.476-5.37-1.476-0.1 0.289-0.93 0.66-2.54 1.09-1.61 0.429-2.38 1.289-2.32 2.617-0.96-0.777-1.73-1.289-2.33-1.457-0.89-0.242-1.49 0.168-1.79 1.269l-0.32 1.731-0.28 1.59c-0.36 1.379-1.13 2.008-2.26 1.886l-0.42 1.481c2.89-0.348 5.58 0.84 8.08 3.562 6.56-1.152 13.43-0.761 20.62 1.168 3.31 0.883 6.8 2.071 10.5 3.563 0.68 1.027 1.85 1.969 3.45 2.789 2.48 1.269 3.85 1.988 4.12 2.168 4.45 2.301 9.25 5.84 14.44 10.582 1.68 1.449 6.15 5.84 13.48 13.051l0.66 2.027 0.51-0.059c6.62 7.149 11.58 16.168 14.94 27.071 2.42 9.219 4.86 18.379 7.28 27.48-0.51 1.449-0.29 3.598 0.63 6.41 0.72 2.34 1.58 4.239 2.59 5.719-0.5 1.352-0.15 3.789 1.11 7.309 1.39 3.941 2.02 6.703 1.94 8.242 1.78 3.59 2.38 6.23 1.7 7.871l-2.15-1.742 0.41-0.371c-2.95-2.93-6.88-6.52-11.8-10.86-6.24-5.57-9.97-8.961-11.25-10.187-2.59-2.172-6.81-4.934-12.53-8.32-5.73-3.403-10.02-6.332-12.85-8.813l-0.55 0.949c-0.24 1.004 0.15 2.821 1.2 5.512 1.13 3.191 1.76 5.238 1.9 6.039 0.16 0.82 0.87 3 2.15 6.563 0.96 2.617 1.35 4.878 1.17 6.718 2.05 7.032 4.14 14.078 6.29 21.09l1.22 2.031c2.06 2.438 5.07 4.707 9.13 6.778 4.77 2.32 8.18 4.32 10.18 6.019l1.19-0.039 0.27-1.367c9.42 4.359 16.34 6.949 20.76 7.867 3.87 0.801 7.43 0.922 10.68 0.332 2.02 3.301 5.42 6.27 10.21 8.867 3.96 2.133 7.96 4.262 11.93 6.372l1.76-0.45" fill="#fff"/><path d="m1727.7 866.04c-2.2-1.168-4.83-3.32-7.81-6.437-3.28-3.481-5.76-5.762-7.4-6.903 0-0.719-0.6-1.558-1.7-2.5-1.1-0.949-2.18-1.867-3.16-2.707-1.98-0.902-3.91-1.844-5.84-2.73-0.25 0.148-1 0.019-2.27-0.473-1.71-0.73-2.64-1.098-2.87-1.141l-0.35 0.262 0.64 1.328c-1.07 0.114-2.11 0.231-3.18 0.352 1.03 0.449 1.85 1.332 2.41 2.629 0.57 1.312 1.38 2.133 2.45 2.48 1.16 1.289 3.04 3.211 5.64 5.813 2.47 1.636 6.2 4.058 11.18 7.238 1.46 0.059 3.55 0.719 6.33 1.969 2.15 0.863 4.26 1.722 6.41 2.601l-0.48-1.781zm-30.57-77.609c3.88 4.511 9.54 11.031 17.16 19.468-0.87-2.699-1.77-5.347-2.64-8.046 0.13-0.192-0.95-1.602-3.22-4.243-0.47-0.5-1.37-1.867-2.65-4.14-1.32-2.258-2.33-3.688-3.13-4.25-0.8-0.571-1.76-1.508-2.89-2.778-1.2-1.601-2.15-2.652-2.84-3.16-7.43-6.043-14.62-10.449-21.66-13.222l0.3-0.879c-0.89-0.629-1.97-1-3.25-1.098l-1.88 0.816c-1.07 0.883-1.7 1.391-1.85 1.571l0.45 1.543 0.47 1.25-0.92 0.777 0.51 0.84 0.47 0.082c1.62 0.937 1.94 2.398 1.02 4.32 1.19 4.598 3.49 10.52 6.98 17.688 4.5 9.34 7.19 14.883 7.9 16.742l2 1.051c0.07 0.32-0.38 0.449-1.38 0.41 1.51 2.887 2.19 4.867 2.03 5.976l-0.68 1.481c-4.26-3.469-9.12-6.149-14.59-8.059 14.05 12.828 26.82 21.539 37.98 26.211l0.68-0.371-0.53-1.148c-2.45-2.473-3.58-4.481-3.4-5.961-1.02-4.379-4.36-12.09-9.82-23.192-4.95-10.109-7.55-18.039-7.88-23.777l0.75-0.57 0.76-0.762c0.97 0.641 2.67 2.441 5.12 5.352l0.63 0.078" fill="#fff"/><path d="m1748.1 819.01-0.38 0.59c1.13 0.617 1.75 1.308 1.9 2.046l0.09 0.782c0.23 0.941 0.68 1.761 1.4 2.441 2 3.809 5.45 9.918 10.38 18.301l-0.24 0.75 1.1 0.719c-0.17 0.488 0.28 1.25 1.26 2.257l0.06 1.25c0.32 1.25 1.28 2.993 2.83 5.204 0.69 1.07 0.86 2.128 0.57 3.097-0.39 1.02-0.74 2-1.1 2.992l-1.64-0.332c-2.42-0.211-3.41 0.86-2.98 3.262 1.93 2.051 4.53 3.988 7.81 5.84 2.86 1.488 5.75 2.988 8.61 4.461 2.13 0.09 3.23-0.672 3.38-2.313 0.21-2.64 0.45-4.097 0.69-4.39-0.09-0.199-0.78-1.957-2.03-5.239-0.84-2.128-1.88-3.851-3.23-5.21-0.68-2.032-1.78-4.938-3.18-8.75-0.57-1.079-1.49-2.661-2.72-4.711-2.48-4.239-6.41-10.618-11.69-19.118l0.15 0.141c-0.66-1.043-1.35-2.07-2.01-3.113-6.94-10.348-13.26-19.199-19.05-26.5-10.35-11.16-19.9-18.559-28.91-22.149-0.93 0.578-1.43 1.399-1.58 2.422-0.09 0.797 0.18 2.438 0.87 4.879 0.58 2.129 0.71 3.789 0.35 4.981 1.31 5 3.05 13.046 5.22 24.097l-0.5 1.473c-0.06 0.637-0.06 1.457 0.03 2.578 0.08 1.07 0.11 1.832 0.05 2.219l-0.45 1.043c-0.2-0.121-1.1-0.723-2.74-1.742l-2.65-1.11-2.01 0.231c0.45 1.23 0.94 2.461 1.38 3.711 7.27 6.679 16.67 13.32 28.19 19.847 0.27-1.527 0.03-3.34-0.66-5.469-0.71-2.128-1.02-3.691-0.89-4.71-5.01-17.622-8.06-30.579-9.37-38.872l0.18-0.109c1.93 1.77 4.18 4.59 6.74 8.512 2.54 3.89 4.54 6.621 5.99 8.23 1.92 3.18 4.75 7.867 8.48 14.02l1.7 0.961 0.6 0.5" fill="#fff"/><path d="m1798.8 832.84-1.02 0.691-0.09 1.09 0.09 1.07c-0.09 0.899-0.56 1.45-1.46 1.571-3.36-1.512-6.29-4.114-8.71-7.821-3.42-3.16-6.86-8.492-10.23-15.953 11.94 7.633 19.12 14.063 21.42 19.352zm18.07-27.008 0.37-0.613c0.05-0.481-0.67-1.25-2.09-2.278-1.86-1.371-2.9-2.23-3.2-2.543l0.33-0.429c0.03-0.309-0.44-0.739-1.43-1.27-0.98-0.551-1.49-1.008-1.58-1.437-1.37-0.403-4-1.68-7.9-3.832-2.98-1.578-5.43-2.348-7.38-2.309-7.18-5.019-13.45-7.73-18.87-8.141-3.7-1.558-7.67-2.601-11.91-3.031-4.65-0.449-8.05-0.097-10.23 1.11-2.92 0.41-4.5 1.839-4.75 4.261-0.14 1.309 0.22 3.52 1.08 6.578 0.86 3.071 1.17 5.063 0.86 5.942l1.97 1.308-1.21 0.782 1.21 0.742-0.83 0.219c1.16 3.609 3.76 9.55 7.84 17.75 1.26 1.859 3.71 4.73 7.37 8.578 3.1 3.16 4.68 5.062 4.74 5.66 0.43 0.351 1.38 0.652 2.9 0.902 7.61 4.098 12.44 6.168 14.38 6.367 1.04 0.891 2.23 1.461 3.64 1.684 1.97 0.168 3.37 0.43 4.24 0.797 7.53 3.18 13.83 4.922 18.84 5.293 1.44 0.117 2.87 0.098 4.3 0 1.67-0.633 2.66-1.473 2.95-2.621 0.3-1.172 0.6-2.34 0.9-3.551-3.31-6.168-9.73-12.191-19.15-18.168-8.74-5.48-17.73-9.473-27.02-11.973l-1.32 0.352c-3.37-6.172-4.86-10.84-4.59-13.961 0.09-0.941 0.26-1.719 0.53-2.398 1.55-3.68 6.18-5.102 13.93-4.422 1.38 0.14 2.81 0.289 4.3 0.531 2.51 0.937 5.04 1.82 7.66 2.641 3.02 1.187 5.05 2.707 6.09 4.636 1.04 0.344 2.09 0.672 3.13 1.043-0.59 0.938 0.09 1.891 2.06 2.75 2.5 1.207 3.88 2 4.18 2.309 0.92-0.84 2.15-0.59 3.66 0.742" fill="#fff"/><path d="m1996.6 746.96c-1.37 0.238-2.77 0.449-4.24 0.711-1.42 0.226-2.41 0.777-2.92 1.598l2.21 0.859c0.74-0.02 1.61-0.527 2.63-1.527 1.01-0.973 1.78-1.52 2.32-1.641zm-10.41 4.359 0.66 1.071 0.95-0.02-0.65-1.07-0.96 0.019zm-0.71 2.168-1.25 0.641 1.1-0.039 0.15-0.602zm-38.72 20.641c0.51-1.02 1.9-2.168 4.08-3.457 2.22-1.274 3.53-3 3.95-5.133 1.04 0 2.29-0.777 3.69-2.328 1.4-1.539 2.57-2.359 3.52-2.481 1.47-0.718 3.64-1.929 6.56-3.589 0.09-1.43 0.06-2.192-0.02-2.309-1.79 0.137-3.5 0.957-5.17 2.539-1.96 2.027-3.37 3.211-4.2 3.539l-0.48-0.14-1.01 1.082-1.5 1.07c0 0.918-0.77 1.617-2.35 2.09-1.58 0.468-2.35 1.09-2.35 1.91l0.32 1.367c-0.21 0.82-0.83 1.133-1.91 0.941-1.04-0.199-1.67-0.058-1.88 0.469l0.78 0.602-0.45 1.371-1.44-1.063h-1.27l-1.25 1.391 2.38 2.129zm-10.18 8.562-0.48-1.531 0.96-0.762 1.19 0.161 1.2 0.152 0.95-0.762-0.48-1.539 1.67-1.211 1.2-1.211 0.48 0.133c-3.28 0.199-4.92 0.758-4.92 1.699l0.95 1.68c-1.7-0.309-3.16 0.102-4.39 1.27-1.22 1.191-2.29 2.359-3.28 3.589l1.76 0.61 1.14-1.188c0.41-0.82 1.11-1.172 2.05-1.09zm-6.47-8.152 0.3 0.762 0.96-0.129-0.48-0.774-0.78 0.141zm-4.42 17.133c0.34-1.024 1.35-1.953 3.05-2.813 1.73-0.859 2.74-1.738 3.08-2.66l-1.15-0.617-1.27 0.129 0.65 1.699c-0.03 0.82-0.8 1.449-2.32 1.899-1.56 0.453-2.24 1.23-2.04 2.363zm-10.04-0.43 0.47-1.23-1.61-0.02 1.14 1.25zm-24.19 98.77 1.51-0.274c0.69 0.024 1.55 0.274 2.66 0.844 1.1 0.52 1.94 0.797 2.51 0.797l1.19-0.277-1.05 0.609c5.68 1.418 11.37 2.809 17.06 4.121 6.9 1.598 12.69 2.27 17.28 1.988 2.12 1.149 4.56 1.762 7.37 1.879h6.74c3.34 0.602 11.42 0.742 24.19 0.293 1.01-0.332 3.88-0.41 8.59-0.293 3.79 0.231 6.14-0.469 7.01-2.109 3.23-0.18 6.54-0.309 9.91-0.371 3.79-0.41 6.44-1.367 7.96-2.84l0.72 1.223c1.96-1.372 4.68-2.372 8.11-2.93 3.46-0.57 6.86-1.141 10.17-1.641 0.21-1.16 1.73-2.09 4.6-2.883 2.86-0.777 4.32-2.046 4.35-3.789 2.81 0.2 4.84-0.66 6.09-2.55 0.8-1.938 1.61-3.868 2.41-5.778-2.69-5.402-8.29-10.121-16.7-14.172-15.91-11.73-36.7-21.988-62.25-31.148-3.5-1.289-9.16-2.992-16.98-5.109-7.25-2.063-12.92-3.872-17.01-5.43 0.78-1.942 1.52-3.832 2.31-5.672 1.1-2.109 2.58-3.18 4.53-3.18l1.61 0.309-0.78-1.391 0.3-0.289 0.74 0.16 0.72 0.129c0.54 0 0.69-0.429 0.48-1.359 0-3.168 2.59-5.547 7.73-7.188l-1.14-1.211 0.89-1.699c0.57-0.293 1.47-0.39 2.63-0.293l-1.44-1.226c0.22-0.614 1.08-1.121 2.66-1.473 1.52-0.367 2.3-0.84 2.3-1.437l-0.95-1.704c1.04-0.816 3.07-1.738 6.05-2.777l0.48-1.25c-1.35-0.172-2.68-0.371-4-0.582 1.17-0.32 2.42-1.43 3.79-3.379 1.04-1.621 2.54-2.308 4.45-2.031-0.3 1.25-1.11 1.832-2.39 1.851l0.98 0.309 2.54-0.93c-0.53-0.32-1.34-1.121-2.42-2.437l1.44 0.129c1.07 0 2.35-0.391 3.87-1.153 1.53-0.816 2.57-1.269 3.11-1.367 1.22-2.359 3.07-3.711 5.49-4.062-0.45-0.387-0.61-1.25-0.51-2.578l1.76 1.64 0.62-0.312-0.26-0.758-0.25-0.762 0.15-0.449c0.22-0.508 0.9-1.02 2.03-1.512 1.16-0.476 1.73-1.008 1.73-1.617l-0.17-1.07c-0.24-1.211 0.17-1.84 1.22-1.86l1.43 0.141 1.58 0.117c1.05-0.058 1.46-0.668 1.22-1.879l2.69 0.551-0.03-0.922-0.62-0.719 0.77-0.179 1.28 0.281c0.63 0 1.46-0.672 2.54-1.922 1.07-1.23 2.14-1.781 3.19-1.601l0.29-0.778 0.48-0.472-0.18-0.61-1.13-0.719c0-0.308 0.51-0.539 1.55-0.66l0.8 0.602 0.31-0.621 0.74-1.86c-0.32-0.91-0.09-1.421 0.75-1.562l2.36 0.551 1.13 0.582c-0.99 0.687-1.97 1.386-2.96 2.07 1.71 0.16 3.16-0.48 4.45-1.953 1.25-1.457 2.27-2.231 2.98-2.25l1.58 0.262c-0.5 0.211-1.4 0.14-2.68-0.219 0.62-0.543 2-1.051 4.21-1.5 2.17-0.512 3.6-1.113 4.32-1.863 0.63-0.11 1.73-0.028 3.37 0.281 1.64 0.289 2.75 0.43 3.37 0.39 1.38-0.039 2.12-0.742 2.3-2.07l1.34 2.262c0.38-0.742 1.73-1.031 4.03-0.883 2.29 0.18 3.76-8e-3 4.35-0.559-8.56-5.242-18.02-7.679-28.43-7.371-1.55 0.063-3.04 0.161-4.5 0.282l-2.2-0.84 0.74-0.801 1.1-0.039c-7.07 0.621-13.12 2.539-18.28 5.801 1.87-0.141 4.3-0.922 7.3-2.364 2.98-1.449 5.49-2.187 7.58-2.25l2.5 0.082c-0.59 1.051-1.81 1.891-3.66 2.54-1.35 0.468-2.66 0.902-3.88 1.339-0.09 0.512-1.13 0.942-3.1 1.27-1.97 0.359-3.11 0.941-3.4 1.762-0.09 0.429-0.63 0.82-1.55 1.269-0.93 0.41-1.28 1.129-1.05 2.149l-1.73-0.571c-0.75 0-1.49 0.571-2.26 1.641-0.75 1.101-1.38 1.652-1.86 1.723l-1.7 0.777-1.78 0.711-1.73-0.43c-0.57-1.121-0.72-1.762-0.51-1.969l1.4 0.579-0.47-1.051 0.14-0.16 1.11 0.433 1.42 0.449 1.08-1.089c0.18-1.551 1.94-3.602 5.22-6.223-1.67 0.141-3.34 0.281-4.98 0.402l0.15 0.758-1.22 0.801c-0.96-0.098-1.44-0.078-1.44 0.019-0.56 2.75-2.68 4.981-6.32 6.661-4.68 2.089-7.52 3.531-8.44 4.351l-0.8-0.742c0.02 0.902-0.81 1.43-2.51 1.519-0.3 1.961-1.47 3.582-3.52 4.911-2.03 1.339-3.28 2.773-3.7 4.312l-1.25-0.152c-1.29 0-2.51 0.953-3.7 2.851-1.22 1.891-2.57 2.809-4.06 2.809-0.41 1.453-2.06 2.992-4.93 4.73-0.03 2.563-1.51 4.27-4.5 5.172-3.61 1.078-5.78 2.188-6.56 3.301l-2.69-0.641c1.26 0.84 1.89 1.719 1.89 2.641 0 0.598-0.33 1.477-0.99 2.566-0.65 1.122-0.98 1.883-0.98 2.293-0.87 0.508-2.24-0.179-4.13-2.031l-0.74 0.762-0.74 0.898-1.25-0.648 0.92 0.797c0 0.82-0.71 1.613-2.09 2.41-0.45-0.117-0.92-0.688-1.43-1.719-1.29 0.699-2.74 2.051-4.38 4.059l-2.24-0.508c-1.07-0.02-2.42 0.32-4.03 1-1.64 0.68-2.86 1.008-3.73 0.98-1.7-0.043-3.34-1.429-4.86-4.109l0.18-1.23c-1.88-1.661-3.91-4.313-6.03-7.954-2.65-4.488-4.12-6.949-4.41-7.339-3.28-5.571-6.53-11.149-9.76-16.739-1.13-0.84-2.11-1.308-2.95-1.351-1.08-0.028-1.91 0.453-2.59 1.453 0.29 3.277 2.38 8.047 6.32 14.258 3.9 6.23 6.18 10.718 6.74 13.492 1.76 1.058 2.65 2.289 2.59 3.598-0.06 2.441-0.09 3.769-0.12 3.98l0.54-1.352c1.13 0.84 1.7 1.704 1.67 2.641l-0.17 1.231-0.22 1.062c-0.03 1.027 0.48 1.988 1.55 2.949-0.68 1.11-1.93 1.731-3.76 1.891-2.17 0.226-3.57 0.738-4.22 1.539 2.89 2.949 7.95 6.551 15.21 10.711 3.6 7.359 7.07 15.5 10.38 24.449 3.04 7.93 6.03 15.84 9.01 23.75 5.57 3.141 11.12 6.328 16.65 9.527 6.65 3.442 12.11 4.922 16.3 4.512-1.54-6.031-5.45-13.609-11.54-22.828-8.86-13.34-13.63-20.922-14.58-22.66-0.87-1.152-1.77-2.32-2.65-3.57-0.93-1.211-1.26-2.34-1.02-3.383 3.46 0.57 6.98 1.07 10.56 1.519 4.23 0.653 7.52 0.883 9.93 0.692 3.34 1.851 7.1 2.968 11.25 3.402 8.14 2.219 16.26 4.387 24.37 6.578 9.63 2.731 17.92 5.621 24.93 8.711 10.81 7.5 16.26 13.629 16.21 18.551-0.06 1.937-1.5 3.617-4.33 5.019-3.28 1.641-5.2 3.149-5.69 4.61-1.67-0.27-3.35 0.019-4.99 0.898-1.64 0.84-3.07 1.25-4.29 1.172-6.84 3.008-17.87 5.277-33.12 6.598-5.6 0.531-11.25 1.082-16.85 1.59l0.33 1.23c-1.46-1.551-3.34-2.309-5.7-2.309-0.45 0-1.17 0.02-2.15 0.141-1.02 0.098-1.79 0.141-2.36 0.141-1.67 0-3.19-0.403-4.5-1.121-18.94-0.45-39.05-4.532-60.1-12.36-2.93-1.449-5.88-2.871-8.8-4.34-3.47-1.871-6.39-3.882-8.71-6.031l-2.72 1.25c5.61 6.192 12.82 11.559 21.68 16.051 5.46 2.758 13.15 5.879 23.13 9.301" fill="#fff"/><path d="m2025.8 815.67c-0.3 0.648 0.06 1.637 1.11 3.109 1.01 1.438 1.39 2.52 1.1 3.239 0.51 2.421 0.09 4.449-1.32 6.109-1.4 1.66-3.28 2.5-5.69 2.582-3.25 0.141-6.48-1.09-9.73-3.629-2.69-2.66-4.05-4.57-4.08-5.684l0.62-1.566c-2.77-1.73-6.83-3.922-12.17-6.562-1.34-6.051-2-9.282-2-9.59-0.08-2.95 1.19-4.821 3.85-5.598 0.96-0.32 2.03-0.512 3.19-0.551 3.32-0.101 6.6 0.778 9.88 2.617 7.87 5.153 12.97 10.293 15.24 15.524zm15.28 1.328c-19.91-16.828-38.37-27.871-55.91-33.031-0.21 0-2.47 0.062-6.83 0.121-3.1-0.039-4.92 0.672-5.55 2.07-0.84 1.969-1.23 4.121-1.2 6.469 0.16 9.492 4.75 18.793 14.03 27.793 16.94 14.238 31.68 21.816 43.73 22.828l0.45-1.129 0.45-1.019-1.2-1.34-0.36-0.59c4.42 1.226 8.15 1.777 11.22 1.66 2.39-0.121 4.17-0.723 5.31-1.801-0.48-1.011-0.75-1.871-0.78-2.59-0.05-1 0.54-2.152 1.7-3.441 1.19-1.289 1.67-2.578 1.37-3.91-0.57-2.809-2.74-6.852-6.43-12.09" fill="#fff"/><path d="m2039.8 782.41c-2.69 1.969-3.91 5.199-3.73 9.672 0.09 2.148 0.53 4.387 1.28 6.68 0.6 1.84 1.08 2.91 1.4 3.16 0.36 2.969 1.55 6.308 3.56 10.098 4.26 5.332 8.53 10.57 12.82 15.761 5.88 6.328 12.68 10.649 20.38 12.91 10.14 6.43 19.53 9.278 28.09 8.618 1.2-0.079 2.4-0.278 3.59-0.567 3.4-1.621 4.98-3.953 4.74-6.992-0.18-2.27-1.31-4.75-3.4-7.5-2.06-2.738-5.32-5-9.7-6.84-3.91-1.539-7.87-3.051-11.9-4.512-0.27 0.633-0.27 2.422 0.06 5.372 0.27 2.539-0.21 4.16-1.49 4.839-0.39 0.77-1.58 1.532-3.61 2.332-2.03 0.821-3.23 1.457-3.64 2.008-5.67-4.957-10.41-10.64-14.25-17.07-4.1-6.82-6.24-12.828-6.51-18.027-0.09-1.641 0.03-3.122 0.38-4.473 2.39-3.09 6.15-4.777 11.25-5.117 3.43-0.211 7.37 0.218 11.82 1.226 2.47 0.141 5.99 1.492 10.58 4.032 2.24 1.378 4.45 2.75 6.6 4.101-0.03-0.98-0.03-1.93-0.06-2.91-1.34-0.57-2.66-1.129-4-1.68-21.09-11.133-37.16-16.582-48.75-16-1.9 0.078-3.75 0.391-5.51 0.879" fill="#fff"/><path d="m2152.9 824.15c-1.07 0.122-2.26 0.184-3.57 0.211-10.77-1.668-22.35-8.55-34.46-20.66 1.64 0.18 3.64 0.723 5.97 1.641 3.13 1.25 5.27 2.07 6.38 2.351 1.43-0.941 3.25-1.511 5.52-1.722 4.42-0.41 12.23 1.269 23.57 4.922 1.51 0.961 2.98 1.929 4.38 2.91 1.88 1.129 2.87 2.211 2.95 3.219 0.21 2.031-1.07 3.71-3.9 5.039-2.18 1.152-4.45 1.863-6.84 2.089zm50.21-71.168c-10.5-3.89-22.79-4.96-37.02-3.378-2.51 0.269-5.19 0.699-8.11 1.207-1.47 0.14-3.44 0.941-5.94 2.32-2.51 1.391-4.6 2.293-6.24 2.66 0.1 0.801-0.44 1.43-1.57 1.84-1.11 0.43-1.77 0.91-1.91 1.422-1.95 0.711-3.97 1.39-6.03 1.98-2.32 0.949-3.88 1.949-4.62 3.059 0.26 0.691-0.33 1.109-1.83 1.25l-0.71 0.672c-1.61 1.07-3.34 3.078-5.22 6.008-1.85 2.949-3.34 4.902-4.45 5.921-2.23 1.008-4.62 3.301-7.1 6.848-2.5 3.543-4.5 5.82-6.02 6.859-2.18-1.757-3.4-3.519-3.64-5.226 1.23-0.242 2.42-0.492 3.64-0.75-0.68-1.684-2.38-3.813-5.13-6.34-3.22-2.723-5.16-4.891-5.94-6.473-2.42-1.437-4.8-2.929-7.12-4.39-2.66-1.547-5.17-2.481-7.52-2.84-1.25 0.082-2.04 0.59-2.27 1.531 0.74 1.582 2.51 4.488 5.34 8.692 2.27 3.32 3.52 5.937 3.76 7.847 2.02 1.723 3.4 3.813 4.11 6.332 0.96 2.891 2.03 4.981 3.2 6.211-0.51 0.328 5.22 8.828 17.51 25.348 0.39 2.422 2.29 5.742 5.69 9.961 4.15 5.078 6.66 8.418 7.43 10 6.59 10.058 16.02 23.929 28.63 41.429 2.04 1.329 4.6 2.258 7.71 2.75 3.51 0.469 6.11 1.122 7.78 1.961 3.88 0.5 6.2 0.457 6.92-0.14-1.79-3.09-4.11-5.801-6.95-8.172-2.9-3.078-9.33-10.969-19.12-23.731-10.29-13.648-16.43-22.566-18.64-26.679-0.93-1.559-2.69-3.649-5.31-6.278l-0.22-0.3 0.99-0.231c0.87-0.078 2.39 0.371 4.6 1.352 2.23 0.968 3.73 1.519 4.5 1.636 6.8 1.731 13.6 3.434 20.34 5.09 8.42 1.922 15.04 2.543 19.81 2.024 5.88-0.672 9.91-3.012 12.09-6.942-1.11-3.058-4.39-6.05-9.73-9.039-4.3-2.09-8.51-4.242-12.65-6.472-10.35-3.278-21.45-6.5-33.29-9.7 1.99-3.968 5.19-9.711 9.51-17.211l-0.39-0.718c-0.03-0.219 0.51-0.551 1.59-1.02 1.07-0.469 1.64-1.109 1.67-1.949 1.04-0.262 2.09-0.512 3.13-0.762 0.12-1.019 0.65-2.148 1.58-3.32 0.96-1.18 1.97-1.758 3.05-1.777l1.42-0.141 1.08-1.211 1.07-1.031-0.77-1.289c1.4 0.129 2.8-0.2 4.2-1.078 2.33-1.27 3.56-1.973 3.64-2.09l-1.52-0.762 0.9-0.551 1.25-0.129-0.21-0.449c-0.03-0.41 0.42-0.633 1.37-0.633 0.96 0 1.47-0.207 1.55-0.617l-1.31-1.539 1.11-0.281 1.04 0.801c0.45-0.762 1.82-1.622 4.11-2.563 2.27-0.91 3.62-1.91 4.04-2.98 2.86-0.137 7.33-0.75 13.42-1.86 6.08-1.109 10.65-1.801 13.72-1.969" fill="#fff"/><path d="m2251.4 803.72c-1.7-0.86-4-1.227-6.9-1.129-2.92 0.058-5.24-0.469-6.94-1.641 2.62 1.68 5.27 3.383 7.9 5.039 6.17 2.551 12.35 5.071 18.55 7.481 7.73 2.773 14.03 4.351 18.92 4.801l0.47-1.032c-8.29-9.34-20.07-23.398-35.05-42.347 0.36 0.257 6.27 5 17.87 14.078 10.86 8.621 22.14 14.281 33.68 17 5.78 2.91 10.38 4.023 13.72 3.34-6.56-8.887-13.24-20.137-20.02-33.77-0.09-2.269 0.31-5.348 1.19-9.277 0.64-0.141 1.47-0.43 2.51-0.981 1.05-0.5 1.91-0.84 2.54-0.972 0.95-0.2 2-0.079 3.16 0.312 1.94 0.859 3.85 1.66 5.76 2.399 2.38 0.98 4.15 1.191 5.24 0.652-10.44-5.961-20.49-9.934-30.21-11.883-2.06-0.641-4.27-0.758-6.56-0.309-4.09 0.879-6.03 1.29-5.82 1.25-1.91 2.54-2.53 5.821-1.79 9.84 0.42 2.399 1.49 5.629 3.19 9.672 2.51 5.86 3.88 9.137 4.09 9.817-15.51-12.137-29.68-21.7-42.69-28.629-1.46-0.371-4.5-1.52-9.09-3.461-3.68-1.457-6.78-2.297-9.25-2.528 4.35 6.051 10.98 15.028 19.98 26.989 7.94 10.679 13.19 19.082 15.55 25.289" fill="#fff"/><path d="m2483.6 684.35c-1.22 0.597-2.54 1.23-3.87 1.89-1.34 0.637-2.15 1.449-2.39 2.36 0.98 0.347 1.76 0.386 2.36 0.199 0.71-0.219 1.42-0.942 2.15-2.192 0.71-1.25 1.3-2.007 1.75-2.257zm-8.85 7.16 0.92 0.84 0.89-0.293-0.93-0.84-0.88 0.293zm-0.12 2.308-1.02 0.961 1.05-0.34-0.03-0.621zm-31.84 30.918c0.25-1.136 1.26-2.617 3.05-4.476 1.79-1.891 2.57-3.922 2.38-6.071 1.02-0.312 2-1.41 2.93-3.3 0.95-1.86 1.85-3.012 2.75-3.379 1.19-1.114 2.97-2.91 5.37-5.332-0.31-1.41-0.55-2.149-0.67-2.211-1.7 0.633-3.12 1.929-4.32 3.89-1.34 2.539-2.39 4.102-3.1 4.629h-0.48l-0.68 1.321-1.17 1.453c0.27 0.879-0.3 1.797-1.7 2.687-1.4 0.903-1.96 1.742-1.76 2.52l0.68 1.23c0.03 0.86-0.47 1.332-1.58 1.43-1.06 0.121-1.64 0.43-1.7 1l0.93 0.351-0.06 1.442-1.67-0.602-1.22 0.371-0.87 1.68c0.99 0.449 1.95 0.918 2.89 1.367zm-7.48 11.133-0.87-1.351 0.72-0.981 1.2-0.207 1.19-0.184 0.71-0.988-0.87-1.371c0.61-0.16 1.02-0.699 1.26-1.641 0.24-0.898 0.51-1.41 0.83-1.5h0.51c-3.13 1.133-4.56 2.141-4.33 3.024l1.41 1.348c-1.73 0.199-3.02 1.019-3.88 2.48-0.87 1.488-1.61 2.93-2.2 4.379l1.87 0.109 0.74-1.496c0.19-0.883 0.78-1.433 1.71-1.621zm-8.5-5.961 0.53 0.649 0.87-0.43-0.66-0.59-0.74 0.371zm0.45 17.699c0.02-1.078 0.74-2.269 2.17-3.558 1.4-1.332 2.15-2.461 2.21-3.442l-1.25-0.269-1.2 0.492 1.07 1.449c0.25 0.801-0.35 1.641-1.73 2.5-1.36 0.848-1.81 1.789-1.27 2.828zm-9.85 2.481 0.12-1.328-1.55 0.429 1.43 0.899zm3.7 101.77 1.4-0.699c0.62-0.172 1.55-0.172 2.77 0.039 1.23 0.199 2.09 0.223 2.66 0.082l1.04-0.609-0.8 0.859c5.84-0.23 11.72-0.5 17.6-0.922 7.1-0.41 12.88-1.418 17.24-3 2.36 0.493 4.92 0.391 7.66-0.32 2.15-0.617 4.33-1.277 6.51-1.93 3.41-0.39 11.28-2.539 23.5-6.64 0.87-0.617 3.62-1.52 8.21-2.731 3.76-0.879 5.85-2.226 6.24-4.066 3.06-1.07 6.26-2.141 9.48-3.18 3.55-1.504 5.88-3.14 6.95-5l1.02 0.957c1.55-1.898 3.9-3.617 7.1-5.16 3.16-1.539 6.32-3.051 9.39-4.508-0.12-1.152 1.11-2.5 3.67-4.062 2.56-1.61 3.61-3.231 3.2-4.91 2.74-0.598 4.47-2.028 5.18-4.2 0.24-2.078 0.51-4.168 0.74-6.25-4.08-4.41-10.79-7.32-20.06-8.777-18.62-6.742-41.59-10.613-68.89-12.07-3.72-0.242-9.66-0.262-17.77-0.082-7.58 0.109-13.58 0-17.96-0.328 0.2-2.071 0.45-4.114 0.68-6.082 0.48-2.379 1.64-3.829 3.5-4.348l1.67-0.18-1.17-1.094 0.24-0.386 0.74-0.063 0.72-0.058 0.09-1.45c-0.84-3.043 1.02-6.089 5.52-9.14l-1.44-0.84 0.39-1.871c0.48-0.469 1.31-0.82 2.48-1.059l-1.73-0.761c0.04-0.641 0.75-1.372 2.14-2.149 1.41-0.801 2.04-1.461 1.86-2.07l-1.41-1.352c0.81-1.09 2.51-2.551 5.11-4.41l0.12-1.309c-1.35 0.2-2.69 0.411-4.03 0.59 1.04-0.648 1.97-2.07 2.74-4.34 0.58-1.871 1.83-2.949 3.76-3.238 0.03 1.289-0.57 2.11-1.79 2.477h1.02l2.21-1.617c-0.63-0.141-1.62-0.68-3.02-1.641l1.43-0.27c1.02-0.3 2.15-1.062 3.43-2.25 1.26-1.191 2.15-1.91 2.63-2.171 0.53-2.641 1.94-4.469 4.21-5.489-0.54-0.25-0.93-1.051-1.19-2.34l2.14 1.09 0.54-0.492-0.48-0.66-0.45-0.641 0.03-0.488c0.06-0.551 0.57-1.25 1.56-2.031 0.98-0.797 1.39-1.489 1.22-2.047l-0.48-0.981c-0.57-1.109-0.32-1.8 0.68-2.132l1.41-0.309 1.58-0.328c1.01-0.32 1.22-1.043 0.68-2.133 0.9-0.078 1.82-0.18 2.75-0.258l-0.27-0.859-0.84-0.524 0.72-0.41 1.31-0.097c0.6-0.18 1.25-1.039 1.94-2.539 0.72-1.5 1.58-2.321 2.65-2.5l0.09-0.801 0.31-0.59-0.34-0.539-1.28-0.383c-0.08-0.289 0.37-0.66 1.31-1.07l0.96 0.351 0.12-0.679 0.21-1.993 0.29-1.718 2.46-0.16 1.22 0.261c-0.75 0.93-1.5 1.867-2.27 2.828 1.67-0.347 2.92-1.39 3.76-3.187 0.83-1.774 1.58-2.75 2.3-2.981l1.58-0.222c-0.45 0.351-1.32 0.551-2.66 0.57 0.45-0.707 1.67-1.59 3.67-2.68 1.97-1.089 3.2-2.089 3.67-2.988 0.56-0.312 1.7-0.539 3.37-0.723 1.64-0.199 2.78-0.386 3.37-0.589 1.31-0.45 1.85-1.321 1.64-2.649l1.91 1.762c0.18-0.813 1.43-1.453 3.7-1.981 2.26-0.492 3.64-1.109 4.09-1.793-9.78-2.578-19.6-2.187-29.6 1.114-1.48 0.468-2.92 1.019-4.29 1.558l-2.39-0.191 0.51-0.981 1.07-0.328c-6.68 2.602-12.05 6.172-16.14 10.801 1.77-0.68 3.92-2.129 6.42-4.383 2.51-2.238 4.74-3.687 6.75-4.328l2.44-0.648c-0.3 1.179-1.25 2.367-2.86 3.5-1.2 0.82-2.34 1.617-3.4 2.398 0.06 0.512-0.84 1.231-2.66 2.129-1.8 0.902-2.74 1.781-2.8 2.66l-1.13 1.66-0.45 2.36-1.83-0.039c-0.71 0.218-1.28 0.941-1.73 2.211-0.45 1.269-0.9 1.988-1.34 2.191l-1.43 1.25-1.55 1.207-1.79 0.07c-0.84-0.929-1.16-1.5-1.02-1.75l1.53 0.129-0.75-0.859 0.09-0.207 1.19 0.117 1.5 0.02 0.74-1.368c-0.24-1.5 0.9-4 3.34-7.461-1.55 0.602-3.14 1.231-4.72 1.809l0.39 0.691-1.01 1.11c-0.92 0.199-1.37 0.308-1.34 0.41 0.18 2.832-1.25 5.59-4.33 8.219-3.93 3.363-6.3 5.57-6.98 6.613l-0.96-0.492c0.28 0.879-0.41 1.621-1.99 2.199 0.24 1.961-0.45 3.852-2.06 5.731-1.61 1.871-2.41 3.589-2.41 5.171l-1.26 0.239c-1.22 0.351-2.18 1.621-2.83 3.769-0.66 2.16-1.7 3.449-3.14 3.86 0 1.511-1.16 3.48-3.45 5.961 0.68 2.441-0.31 4.531-2.92 6.25-3.2 2.089-5.02 3.769-5.43 5.062-0.93 0.059-1.89 0.098-2.81 0.156 1.46 0.453 2.3 1.094 2.53 1.992 0.19 0.559 0.09 1.5-0.23 2.75-0.33 1.25-0.42 2.09-0.33 2.461-0.69 0.758-2.21 0.489-4.54-0.761l-0.5 0.941-0.45 1.07-1.44-0.23 1.14 0.488c0.24 0.762-0.24 1.742-1.37 2.91l-1.82-1.23c-1.07 1.031-2.12 2.75-3.16 5.133l-2.3 0.16c-1.04 0.289-2.23 0.976-3.61 2.109-1.4 1.11-2.5 1.778-3.31 1.989-1.67 0.472-3.64-0.391-5.85-2.54l-0.15-1.23c-2.29-1.07-4.95-3.059-8.03-5.961-3.75-3.527-5.83-5.457-6.25-5.758-4.69-4.41-9.37-8.84-14.03-13.301-1.31-0.511-2.38-0.64-3.19-0.449-1.04 0.258-1.73 0.981-2.08 2.129 1.16 3.051 4.47 7.031 9.99 11.879 5.49 4.859 8.89 8.531 10.17 11.051 2.03 0.512 3.19 1.449 3.52 2.699 0.6 2.383 0.93 3.672 0.99 3.859l0.11-1.457c1.34 0.508 2.15 1.188 2.36 2.09l0.15 1.211 0.12 1.067c0.23 1 1.02 1.8 2.27 2.41-0.34 1.25-1.38 2.222-3.11 2.89-2.03 0.84-3.22 1.743-3.67 2.692 3.64 1.988 9.49 4.031 17.64 5.941 5.48 6.039 11.06 12.867 16.72 20.528 5.11 6.742 10.18 13.492 15.22 20.23 6.27 1.449 12.5 2.91 18.74 4.422 7.33 1.379 13 1.269 16.97-0.363-3.16-5.309-8.98-11.52-17.42-18.61-12.21-10.289-18.89-16.187-20.31-17.597-1.14-0.84-2.34-1.743-3.53-2.672-1.22-0.918-1.87-1.899-1.9-2.95 3.48-0.449 7.04-0.98 10.61-1.582 4.27-0.566 7.52-1.289 9.79-2.168 3.76 0.821 7.69 0.84 11.81 0.059 8.5-0.199 16.95-0.43 25.39-0.687 10.08-0.114 18.94 0.277 26.55 1.25 12.53 4.089 19.5 8.418 20.79 13.148 0.48 1.891-0.48 3.898-2.83 6.07-2.75 2.5-4.15 4.532-4.27 6.059-1.67 0.23-3.22 0.992-4.57 2.301-1.34 1.289-2.65 2.09-3.85 2.351-5.78 4.86-15.84 10.211-30.24 15.828-5.29 2.153-10.59 4.262-15.9 6.371l0.68 1.079c-1.81-1.059-3.87-1.25-6.14-0.61-0.45 0.141-1.1 0.371-2.06 0.762s-1.7 0.687-2.24 0.82c-1.61 0.489-3.16 0.551-4.66 0.219-18.42 4.98-38.98 6.789-61.41 5.289-3.25-0.551-6.48-1.109-9.73-1.66-3.85-0.797-7.19-1.91-10.05-3.32l-2.26 1.972c7.1 4.36 15.51 7.457 25.32 9.239 6.03 1.082 14.32 1.902 24.88 2.339" fill="#fff"/><path d="m2530.8 741.96c-0.12 0.711 0.54 1.578 1.92 2.68 1.39 1.089 2.06 2.007 1.96 2.808 1.17 2.153 1.32 4.242 0.42 6.231-0.89 1.968-2.5 3.359-4.81 4.121-3.12 1.078-6.62 0.82-10.44-0.699-3.34-1.801-5.15-3.204-5.51-4.301l0.18-1.66c-3.16-0.903-7.7-1.809-13.6-2.789-2.96-5.473-4.48-8.34-4.6-8.653-0.86-2.82-0.12-4.98 2.24-6.488 0.84-0.602 1.82-1.09 2.95-1.441 3.16-1.04 6.6-1.161 10.27-0.329 9.03 2.688 15.42 6.168 19.02 10.52zm15.19-3.121c-23.93-10.43-44.87-15.738-63.24-15.649-0.21 0.059-2.42 0.758-6.6 2.09-3 0.821-4.59 2.008-4.8 3.578-0.26 2.129-0.06 4.289 0.63 6.539 2.72 9.063 9.72 16.661 21.18 22.684 20.32 8.816 36.67 11.848 48.66 9.367l0.11-1.25 0.15-1.09-1.52-0.937-0.51-0.473c4.63-0.078 8.42-0.617 11.34-1.64 2.29-0.797 3.85-1.868 4.69-3.258l-1.47-2.25c-0.33-0.949-0.09-2.199 0.71-3.813 0.78-1.558 0.87-2.949 0.25-4.117-1.35-2.562-4.54-5.82-9.58-9.781" fill="#fff"/><path d="m2621.8 771.83c0.24 0.988 1.61 3.18 4.12 6.539 2.5 3.34 3.84 5.738 4.02 7.211-7.52-3.992-12.85-7.582-16.01-10.75l-0.48 0.18c-1.19-0.981-7.55-6.043-18.92-15.274-7.67-6.207-13.45-11.468-17.42-15.769l-0.15-0.438c-1.52-0.652-3.28-2.23-5.34-4.73 8.71 2.91 17.54 7.711 26.58 14.328 3.05 2.23 10.71 8.582 23.12 18.871l0.48-0.168zm-54.83-74.773c-6.5-3.809-12.89-6.739-19.18-8.829-7.52-2.5-13.22-3.011-17.1-1.539l-1.1 0.207c-1.1 0.391-1.76 1.493-1.93 3.274 0.02 1.379 0.05 2.828 0.08 4.328-0.06 3.172 0.54 6.621 1.79 10.371 3.28 9.77 9.64 19.32 19.24 28.617l-0.8-0.379c7.27 6.903 14.62 13.75 22.01 20.59 3.34 2.461 8 6.602 13.99 12.313l0.33-0.121c4.71 5.039 11.58 10.488 20.64 16.398 7.88 4.992 15.84 9.949 23.84 14.852 0.65 0.191 3.57 1.168 8.71 2.89 3.6 1.129 6.56 1.699 8.86 1.66 5.54 2.668 10.68 2.911 15.36 0.719l-1.19-1.68 0.06-1.832c-1.08-2.757-3.34-6.957-6.83-12.558-4.92-4.871-9.82-9.789-14.71-14.77-5.79-5.41-11.78-10.23-18.04-14.488-4.96-3.422-11.46-6.992-19.43-10.762-11.57-5.238-18.25-8.441-20.14-9.468-3.19-0.793-7.27-1.293-12.25-1.571-2.36-1.09-4.51-2.972-6.48-5.621-1.67-2.109-3.34-4.281-5.01-6.469-0.62-1.543-2.14-3.902-4.54-7.16-1.96-8.383-2.97-12.781-3-13.191-0.37-4.981 1.3-8.059 4.95-9.281 0.14 0.062 2.23 1.043 6.35 2.91 2.53 1.14 4.39 1.332 5.52 0.59" fill="#fff"/><path d="m2660.7 756.57c0.28 1 1.7 3.129 4.27 6.45 2.57 3.3 3.97 5.66 4.18 7.152-7.64-3.871-13.04-7.352-16.29-10.453l-0.48 0.191c-1.19-0.941-7.63-5.879-19.21-14.898-7.75-6.043-13.66-11.172-17.72-15.41l-0.15-0.43c-1.55-0.613-3.34-2.152-5.43-4.613 8.77 2.73 17.73 7.339 26.85 13.793 3.11 2.168 10.89 8.359 23.53 18.418l0.45-0.2zm-56.28-73.648c-6.6-3.672-13.01-6.481-19.33-8.442-7.61-2.359-13.31-2.75-17.19-1.21l-1.1 0.242c-1.08 0.41-1.73 1.5-1.88 3.297 0.06 1.402 0.12 2.851 0.21 4.332-0.03 3.168 0.62 6.621 1.97 10.347 3.46 9.711 9.99 19.121 19.81 28.211l-0.83-0.347c7.42 6.75 14.91 13.449 22.43 20.128 3.37 2.418 8.1 6.45 14.25 12.051l0.3-0.133c4.83 4.922 11.78 10.25 20.97 15.954 7.99 4.847 16.05 9.648 24.14 14.398 0.68 0.172 3.6 1.07 8.79 2.691 3.62 1.079 6.6 1.571 8.89 1.508 5.59 2.539 10.74 2.672 15.39 0.391l-1.22-1.641 0.03-1.84c-1.13-2.73-3.49-6.89-7.07-12.437-5.01-4.774-10.02-9.59-15-14.453-5.91-5.278-12.02-10-18.32-14.117-5.07-3.34-11.63-6.782-19.66-10.383-11.69-5-18.43-8.059-20.34-9.059-3.22-0.699-7.31-1.148-12.29-1.328-2.39-1.031-4.6-2.871-6.6-5.48-1.7-2.071-3.43-4.204-5.15-6.391-0.66-1.492-2.21-3.832-4.65-7.031-2.15-8.36-3.25-12.758-3.28-13.168-0.45-4.961 1.16-8.063 4.79-9.352 0.16 0.059 2.28 0.988 6.39 2.77 2.6 1.101 4.44 1.23 5.55 0.492" fill="#fff"/></g></g></svg>
